<svg preserveAspectRatio="none" width="100%" height="100%" overflow="visible" style="display: block;" viewBox="0 0 2515.9 98.0004" fill="none" xmlns="http://www.w3.org/2000/svg">
<g id="SVG" clip-path="url(#clip0_0_4)">
<path id="Vector" d="M2515.9 34.1944C2515.9 34.1944 2451.12 49.3527 2391.66 50.4103C2331.31 51.4678 2279.84 50.4103 2206.18 45.1225C2105.9 38.0721 1912.44 9.51802 1809.5 25.0289C1706.55 40.5397 1702.12 41.2448 1649.76 51.1153C1591.18 62.3959 1472.27 84.9572 1324.95 83.8996C1167.87 82.8421 883.005 25.3814 765.863 28.2016C753.439 28.5541 707.292 31.0217 672.682 35.2519C638.959 39.4822 589.262 48.6477 521.816 51.8204C493.418 53.2304 448.159 55.6981 395.799 54.993C382.488 54.6405 339.891 53.5829 289.306 49.3527C238.722 45.1225 191.688 38.4246 149.09 36.3095C57.6838 32.4318 0 38.0721 0 38.0721V0H2515.9V34.1944ZM2314.45 39.8347C2308.24 36.3095 2296.7 38.4246 2276.29 38.4246C2255.88 38.4246 2222.16 34.1944 2224.82 34.5469C2227.48 34.8994 2252.33 39.8347 2278.07 41.2448C2304.69 43.0074 2319.78 43.3599 2314.45 39.8347ZM2151.16 30.3167C2151.16 30.3167 2129.86 29.6116 2101.46 27.144C2073.07 24.3238 2010.06 17.2734 1967.46 14.8058C1894.69 10.9281 1827.24 14.8058 1833.46 15.1583C1840.56 15.5109 1918.65 13.0432 1989.65 19.036C2018.93 21.5037 2072.18 26.7915 2099.69 28.5541C2128.98 30.6692 2151.16 30.3167 2151.16 30.3167ZM1643.54 29.9641C1658.63 27.4965 1525.51 46.5326 1479.37 51.4678C1460.73 53.5829 1424.35 57.1081 1390.62 58.5182C1356.01 59.9283 1311.64 59.9283 1312.53 60.2808C1312.53 60.9859 1364 63.101 1411.92 60.2808C1459.84 57.4607 1458.07 56.4031 1479.37 54.6405C1513.09 51.8204 1628.46 32.4318 1643.54 29.9641ZM1766.9 24.3238C1768.67 24.3238 1759.8 22.9138 1724.3 28.2016C1688.8 33.4893 1664.84 40.5397 1663.07 41.2448C1661.29 41.5973 1694.13 34.8994 1721.64 30.6692C1748.26 26.439 1766.01 24.3238 1766.9 24.3238ZM2511.46 21.1512C2510.58 21.5037 2494.6 25.0289 2468.87 29.9641C2443.13 34.8994 2407.63 39.8347 2409.41 39.4822C2411.18 39.4822 2440.47 37.3671 2475.08 30.6692C2509.69 23.9713 2512.35 20.7986 2511.46 21.1512ZM277.77 40.8923C278.657 40.1872 260.908 40.1872 237.835 36.662C214.761 33.1368 189.913 31.0217 168.614 29.6116C133.116 26.7915 64.7833 29.9641 68.3331 30.3167C70.9954 30.6692 141.103 29.2591 179.263 32.7843C198.787 34.5469 200.562 34.5469 229.848 38.4246C259.133 42.3023 276.882 41.9498 277.77 40.8923ZM647.833 32.4318C651.383 32.0793 678.894 26.7915 722.378 23.2663C765.863 19.3886 801.361 21.5037 801.361 20.4461C801.361 19.3886 792.486 17.2735 746.339 19.3886C700.192 21.5037 644.283 32.7843 647.833 32.4318ZM635.409 23.6188C637.184 23.9713 665.582 19.036 685.993 17.626C706.404 16.5684 702.855 15.8634 702.855 15.5109C702.855 15.1583 693.093 14.8058 678.894 16.2159C663.807 17.9785 633.634 23.2663 635.409 23.6188ZM830.646 15.5109C831.534 16.2159 861.707 18.331 880.343 21.8562C898.979 25.3814 896.317 23.9713 897.205 23.6188C898.092 23.2663 890.105 20.7986 875.906 19.036C861.707 16.9209 829.759 14.8058 830.646 15.5109ZM580.388 39.1297C579.5 40.1872 583.05 40.8922 597.249 38.4246C611.448 35.957 620.322 33.8419 616.773 34.1944C613.223 34.5469 608.786 35.6045 594.587 37.0145C579.5 38.4246 581.275 38.0721 580.388 39.1297ZM306.168 43.7124C304.393 43.7124 324.804 46.5326 335.453 46.8851C346.103 47.2376 353.202 47.2376 353.202 46.18C353.202 45.1225 352.315 44.4174 339.003 44.77C324.804 45.1225 307.943 43.7124 306.168 43.7124ZM1350.69 74.3816C1349.8 74.7341 1329.39 73.324 1284.13 73.324C1239.76 73.324 1163.44 64.8636 1131.49 60.9859C1099.54 57.1081 1220.23 74.7341 1277.92 75.4391C1335.6 76.1442 1351.58 74.0291 1350.69 74.3816Z" fill="var(--fill-0, #F3F1E8)"/>
<path id="Vector_2" d="M2392.54 63.4534C2391.66 63.1009 2351.72 64.511 2328.65 63.4534C2263.87 60.9858 2177.78 52.1729 2181.33 53.2304C2184.88 54.288 2302.91 64.1585 2332.2 64.8635C2375.68 66.2736 2393.43 63.4534 2392.54 63.4534Z" fill="var(--fill-0, #F3F1E8)"/>
<path id="Vector_3" d="M2018.04 34.5469C2016.27 34.1944 1978.11 31.0217 1933.74 30.3167C1889.37 29.6116 1821.03 32.4318 1824.58 32.0792C1827.24 31.7267 1876.94 25.7339 1942.61 27.849C2008.28 29.9641 2019.82 34.8994 2018.04 34.5469Z" fill="var(--fill-0, #F3F1E8)"/>
<path id="Vector_4" d="M1814.82 47.2376C1813.93 46.8851 1832.57 43.7124 1843.22 43.3599C1853.87 43.0074 1860.97 43.3599 1860.97 44.4174C1860.97 45.475 1860.08 46.18 1846.77 45.8275C1831.68 45.475 1815.71 47.5901 1814.82 47.2376Z" fill="var(--fill-0, #F3F1E8)"/>
<path id="Vector_5" d="M1783.76 37.3671C1783.76 37.0145 1744.71 41.5973 1727.85 45.1225C1710.99 48.2951 1672.83 56.0505 1673.72 56.0505C1674.6 56.403 1710.99 50.4102 1729.63 46.885C1748.26 43.3599 1783.76 37.7196 1783.76 37.3671Z" fill="var(--fill-0, #F3F1E8)"/>
<path id="Vector_6" d="M1371.1 94.1226C1370.21 93.7701 1330.28 95.1802 1307.2 94.1226C1242.42 91.655 1156.34 82.8421 1159.89 83.8996C1163.44 84.9572 1281.47 94.8277 1310.75 95.5327C1354.24 96.9428 1371.99 94.4752 1371.1 94.1226Z" fill="var(--fill-0, #F3F1E8)"/>
<path id="Vector_7" d="M371.839 68.0362C371.839 68.0362 382.488 66.9787 397.574 67.6837C412.661 68.3887 449.046 70.8564 470.344 70.1513C507.617 68.7413 536.015 60.6333 532.465 60.9859C528.915 60.9859 494.305 68.7413 456.145 67.6837C440.171 67.3312 410.886 65.9211 396.687 66.2736C382.488 66.6261 371.839 68.0362 371.839 68.0362Z" fill="var(--fill-0, #F3F1E8)"/>
<path id="Vector_8" d="M670.019 44.4174C671.794 44.7699 687.768 41.5973 708.179 40.5397C728.59 39.8347 726.815 39.4822 726.815 38.7771C726.815 38.4246 710.841 37.3671 696.642 38.7771C682.443 40.5397 668.244 44.0649 670.019 44.4174Z" fill="var(--fill-0, #F3F1E8)"/>
<path id="Vector_9" d="M138.441 46.5326C138.441 46.18 176.601 46.5326 197.899 48.2951C219.198 50.0577 242.271 54.993 242.271 55.3455C242.271 55.698 218.311 52.5254 197.012 50.4103C176.601 48.2952 139.328 46.8851 138.441 46.5326Z" fill="var(--fill-0, #F3F1E8)"/>
</g>
<defs>
<clipPath id="clip0_0_4">
<rect width="2515.9" height="98.0004" fill="white"/>
</clipPath>
</defs>
</svg>
